<svg width="24" height="24" viewBox="0 0 24 24" fill="none" xmlns="http://www.w3.org/2000/svg">
<path d="M8.78033 6.03033C9.07322 5.73744 9.07322 5.26256 8.78033 4.96967C8.48744 4.67678 8.01256 4.67678 7.71967 4.96967L1.21967 11.4697C0.926777 11.7626 0.926777 12.2374 1.21967 12.5303L7.71967 19.0303C8.01256 19.3232 8.48744 19.3232 8.78033 19.0303C9.07322 18.7374 9.07322 18.2626 8.78033 17.9697L2.81066 12L8.78033 6.03033Z" fill="#24292F"/>
<path d="M15.2197 6.03033C14.9268 5.73744 14.9268 5.26256 15.2197 4.96967C15.5126 4.67678 15.9874 4.67678 16.2803 4.96967L22.7803 11.4697C23.0732 11.7626 23.0732 12.2374 22.7803 12.5303L16.2803 19.0303C15.9874 19.3232 15.5126 19.3232 15.2197 19.0303C14.9268 18.7374 14.9268 18.2626 15.2197 17.9697L21.1893 12L15.2197 6.03033Z" fill="#24292F"/>
</svg>
