<svg width="24" height="24" viewBox="0 0 24 24" fill="none" xmlns="http://www.w3.org/2000/svg">
<path fill-rule="evenodd" clip-rule="evenodd" d="M10.157 1.15401C11.3771 0.948013 12.623 0.948013 13.843 1.15401C14.0383 1.18805 14.2122 1.29803 14.3267 1.45991C14.4411 1.62179 14.4868 1.82239 14.4538 2.01787C14.4207 2.21334 14.3116 2.38778 14.1503 2.50305C13.989 2.61832 13.7887 2.66505 13.593 2.63301C12.5385 2.45495 11.4616 2.45495 10.407 2.63301C10.2108 2.66616 10.0094 2.61999 9.84716 2.50465C9.68494 2.38932 9.57518 2.21427 9.54203 2.01801C9.50888 1.82175 9.55505 1.62035 9.67038 1.45814C9.78572 1.29592 9.96077 1.18616 10.157 1.15301V1.15401ZM6.68003 3.20501C6.73711 3.2853 6.77781 3.37606 6.7998 3.47209C6.8218 3.56812 6.82466 3.66754 6.80822 3.76467C6.79179 3.86181 6.75637 3.95476 6.70401 4.0382C6.65164 4.12165 6.58335 4.19396 6.50303 4.25101C5.63134 4.87036 4.86977 5.6316 4.25003 6.50301C4.13466 6.66519 3.95959 6.77489 3.76333 6.80799C3.56708 6.84109 3.36571 6.79488 3.20353 6.67951C3.04135 6.56414 2.93164 6.38907 2.89854 6.19281C2.86544 5.99655 2.91166 5.79519 3.02703 5.63301C3.74389 4.62504 4.62479 3.74448 5.63303 3.02801C5.71333 2.97093 5.80408 2.93023 5.90011 2.90823C5.99614 2.88624 6.09556 2.88338 6.1927 2.89981C6.28983 2.91625 6.38278 2.95166 6.46623 3.00403C6.54967 3.05639 6.62198 3.12469 6.67903 3.20501H6.68003ZM17.32 3.20501C17.3771 3.12469 17.4494 3.05639 17.5328 3.00403C17.6163 2.95166 17.7092 2.91625 17.8064 2.89981C17.9035 2.88338 18.0029 2.88624 18.0989 2.90823C18.195 2.93023 18.2857 2.97093 18.366 3.02801C19.374 3.74487 20.2546 4.62576 20.971 5.63401C21.0312 5.71407 21.0747 5.80537 21.099 5.90253C21.1233 5.99969 21.1279 6.10073 21.1126 6.19969C21.0972 6.29865 21.0622 6.39354 21.0095 6.47874C20.9569 6.56395 20.8877 6.63775 20.8061 6.69579C20.7245 6.75383 20.6321 6.79493 20.5343 6.81668C20.4366 6.83843 20.3354 6.84037 20.2369 6.82241C20.1384 6.80444 20.0444 6.76692 19.9607 6.71206C19.8769 6.6572 19.8049 6.58612 19.749 6.50301C19.1296 5.63168 18.3684 4.87045 17.497 4.25101C17.4167 4.19396 17.3484 4.12165 17.2961 4.0382C17.2437 3.95476 17.2083 3.86181 17.1918 3.76467C17.1754 3.66754 17.1783 3.56812 17.2003 3.47209C17.2223 3.37606 17.263 3.2853 17.32 3.20501ZM2.01803 9.54301C2.21415 9.57605 2.38911 9.68563 2.50444 9.84766C2.61977 10.0097 2.66602 10.2109 2.63303 10.407C2.45497 11.4615 2.45497 12.5385 2.63303 13.593C2.66618 13.7893 2.62001 13.9907 2.50468 14.1529C2.38934 14.3151 2.21429 14.4249 2.01803 14.458C1.82177 14.4912 1.62038 14.445 1.45816 14.3297C1.29594 14.2143 1.18618 14.0393 1.15303 13.843C0.947037 12.623 0.947037 11.377 1.15303 10.157C1.1695 10.0599 1.20494 9.96697 1.25733 9.88355C1.30972 9.80013 1.37802 9.72785 1.45835 9.67083C1.53867 9.61382 1.62944 9.57318 1.72547 9.55125C1.82151 9.52932 1.92092 9.52652 2.01803 9.54301V9.54301ZM21.982 9.54301C22.178 9.50999 22.3791 9.55611 22.5411 9.67124C22.7031 9.78636 22.8128 9.96107 22.846 10.157C23.0521 11.377 23.0521 12.623 22.846 13.843C22.812 14.0383 22.702 14.2122 22.5401 14.3266C22.3782 14.4411 22.1776 14.4868 21.9822 14.4537C21.7867 14.4207 21.6123 14.3116 21.497 14.1503C21.3817 13.989 21.335 13.7886 21.367 13.593C21.5452 12.5385 21.5452 11.4615 21.367 10.407C21.334 10.2109 21.3803 10.0097 21.4956 9.84766C21.611 9.68563 21.7859 9.57605 21.982 9.54301ZM3.20503 17.32C3.28533 17.2629 3.37608 17.2222 3.47211 17.2002C3.56814 17.1782 3.66756 17.1754 3.7647 17.1918C3.86183 17.2082 3.95478 17.2437 4.03823 17.296C4.12167 17.3484 4.19398 17.4167 4.25103 17.497C4.87047 18.3683 5.6317 19.1296 6.50303 19.749C6.58333 19.8061 6.6516 19.8785 6.70393 19.962C6.75626 20.0455 6.79163 20.1385 6.80802 20.2357C6.82441 20.3329 6.8215 20.4323 6.79945 20.5284C6.7774 20.6244 6.73666 20.7152 6.67953 20.7955C6.62241 20.8758 6.55002 20.9441 6.46652 20.9964C6.38301 21.0487 6.29001 21.0841 6.19283 21.1005C6.09566 21.1169 5.9962 21.114 5.90015 21.0919C5.8041 21.0699 5.71333 21.0291 5.63303 20.972C4.62506 20.2551 3.74451 19.3742 3.02803 18.366C2.97095 18.2857 2.93025 18.195 2.90826 18.0989C2.88626 18.0029 2.8834 17.9035 2.89984 17.8063C2.91627 17.7092 2.95169 17.6163 3.00405 17.5328C3.05642 17.4494 3.12471 17.3771 3.20503 17.32V17.32ZM20.795 17.32C20.8753 17.3771 20.9435 17.4495 20.9957 17.533C21.048 17.6165 21.0833 17.7094 21.0997 17.8066C21.116 17.9037 21.1131 18.0031 21.091 18.0991C21.0689 18.1951 21.0282 18.2858 20.971 18.366C20.2545 19.3739 19.3739 20.2545 18.366 20.971C18.286 21.0312 18.1947 21.0747 18.0975 21.099C18.0004 21.1233 17.8993 21.1279 17.8003 21.1125C17.7014 21.0972 17.6065 21.0621 17.5213 21.0095C17.4361 20.9569 17.3623 20.8877 17.3043 20.8061C17.2462 20.7245 17.2051 20.632 17.1834 20.5343C17.1616 20.4365 17.1597 20.3354 17.1776 20.2369C17.1956 20.1383 17.2331 20.0444 17.288 19.9606C17.3428 19.8768 17.4139 19.8049 17.497 19.749C18.3684 19.1296 19.1296 18.3683 19.749 17.497C19.8061 17.4167 19.8784 17.3484 19.9618 17.296C20.0453 17.2437 20.1382 17.2082 20.2354 17.1918C20.3325 17.1754 20.4319 17.1782 20.528 17.2002C20.624 17.2222 20.7147 17.2629 20.795 17.32V17.32ZM9.54303 21.982C9.57607 21.7859 9.68566 21.6109 9.84768 21.4956C10.0097 21.3803 10.2109 21.334 10.407 21.367C11.4616 21.5452 12.5385 21.5452 13.593 21.367C13.7893 21.3339 13.9907 21.38 14.1529 21.4954C14.3151 21.6107 14.4249 21.7857 14.458 21.982C14.4912 22.1783 14.445 22.3797 14.3297 22.5419C14.2143 22.7041 14.0393 22.8139 13.843 22.847C12.623 23.0531 11.3771 23.0531 10.157 22.847C10.0599 22.8305 9.96699 22.7951 9.88357 22.7427C9.80016 22.6903 9.72788 22.622 9.67086 22.5417C9.61384 22.4614 9.57321 22.3706 9.55127 22.2746C9.52934 22.1785 9.52654 22.0791 9.54303 21.982V21.982Z" fill="#24292F"/>
</svg>
