<svg width="24" height="24" viewBox="0 0 24 24" fill="none" xmlns="http://www.w3.org/2000/svg">
<path d="M17.4812 8.75545C17.4846 8.94975 17.4125 9.13779 17.28 9.27997L10.78 15.78C10.6394 15.9204 10.4487 15.9993 10.25 15.9993C10.0512 15.9993 9.86062 15.9204 9.72 15.78L6.72 12.78C6.58752 12.6378 6.5154 12.4497 6.51882 12.2554C6.52225 12.0611 6.60096 11.8758 6.73838 11.7383C6.87579 11.6009 7.06118 11.5222 7.25548 11.5188C7.44978 11.5154 7.63782 11.5875 7.78 11.72L10.25 14.19L16.22 8.21997C16.3622 8.08749 16.5502 8.01537 16.7445 8.01879C16.9388 8.02222 17.1242 8.10093 17.2616 8.23835C17.399 8.37576 17.4777 8.56115 17.4812 8.75545Z" fill="#24292F"/>
<path fill-rule="evenodd" clip-rule="evenodd" d="M1 12C1 5.925 5.925 1 12 1C18.075 1 23 5.925 23 12C23 18.075 18.075 23 12 23C5.925 23 1 18.075 1 12ZM5.28249 5.28249C3.50089 7.06408 2.5 9.48044 2.5 12C2.5 14.5196 3.50089 16.9359 5.28249 18.7175C7.06408 20.4991 9.48044 21.5 12 21.5C14.5196 21.5 16.9359 20.4991 18.7175 18.7175C20.4991 16.9359 21.5 14.5196 21.5 12C21.5 9.48044 20.4991 7.06408 18.7175 5.28249C16.9359 3.50089 14.5196 2.5 12 2.5C9.48044 2.5 7.06408 3.50089 5.28249 5.28249Z" fill="#24292F"/>
</svg>
